<svg xmlns="http://www.w3.org/2000/svg" width="18.974" height="18.974" viewBox="0 0 18.974 18.974">
  <g id="vuesax_outline_building" data-name="vuesax/outline/building" transform="translate(-108 -188)">
    <g id="building" transform="translate(108 188)">
      <path id="Vector" d="M8.918,17.006H2.261A2.249,2.249,0,0,1,0,14.777V3.044A2.973,2.973,0,0,1,1.273.38a3.027,3.027,0,0,1,3.02.047L7.8,2.151A3.289,3.289,0,0,1,9.511,4.878V16.413A.6.6,0,0,1,8.918,17.006ZM2.641,1.194a1.375,1.375,0,0,0-.743.2,1.85,1.85,0,0,0-.712,1.652V14.777A1.06,1.06,0,0,0,2.261,15.82H8.325V4.878a2.085,2.085,0,0,0-1.051-1.66L3.763,1.495A2.6,2.6,0,0,0,2.641,1.194Z" transform="translate(0.965 0.98)" fill="#13395c"/>
      <path id="Vector-2" data-name="Vector" d="M5.582,10.339H.593A.6.6,0,0,1,0,9.746V.591A.573.573,0,0,1,.221.132a.592.592,0,0,1,.5-.119l.372.079L6.262,1.247A2.738,2.738,0,0,1,8.673,4.093a.652.652,0,0,1,.008.166V7.248A2.771,2.771,0,0,1,5.582,10.339Zm-4.4-1.186h4.4c1.391,0,1.905-.514,1.905-1.905V4.2A1.626,1.626,0,0,0,6,2.4L1.186,1.326Z" transform="translate(9.29 7.647)" fill="#13395c"/>
      <path id="Vector-3" data-name="Vector" d="M3.336,1.186H.593A.6.6,0,0,1,0,.593.6.6,0,0,1,.593,0H3.336a.593.593,0,1,1,0,1.186Z" transform="translate(3.755 6.522)" fill="#13395c"/>
      <path id="Vector-4" data-name="Vector" d="M3.336,1.186H.593A.6.6,0,0,1,0,.593.6.6,0,0,1,.593,0H3.336a.593.593,0,1,1,0,1.186Z" transform="translate(3.755 9.685)" fill="#13395c"/>
      <path id="Vector-5" data-name="Vector" d="M2.372,6.316A2.379,2.379,0,0,1,0,3.944V.6A.6.6,0,0,1,.221.133a.572.572,0,0,1,.5-.119l3.558.8a.6.6,0,0,1,.466.577V3.936A2.375,2.375,0,0,1,2.372,6.316ZM1.186,1.343v2.6a1.186,1.186,0,1,0,2.372,0V1.873Z" transform="translate(9.661 7.717)" fill="#13395c"/>
      <path id="Vector-6" data-name="Vector" d="M2.372,5.508A2.379,2.379,0,0,1,0,3.137V.591A.573.573,0,0,1,.221.132a.6.6,0,0,1,.5-.119l1.6.356A2.738,2.738,0,0,1,4.736,3.216v.047A2.363,2.363,0,0,1,2.372,5.508ZM1.186,1.326v1.81a1.183,1.183,0,0,0,2.364.087,1.588,1.588,0,0,0-1.478-1.7Z" transform="translate(13.219 8.525)" fill="#13395c"/>
      <path id="Vector-7" data-name="Vector" d="M0,0H18.974V18.974H0Z" fill="none" opacity="0"/>
    </g>
  </g>
</svg>
