<svg xmlns="http://www.w3.org/2000/svg" width="15.498" height="15.209" viewBox="0 0 15.498 15.209">
  <g id="Calling" transform="translate(0.6 0.663)">
    <path id="Stroke_1" data-name="Stroke 1" d="M0,0A5.85,5.85,0,0,1,5.168,5.162" transform="translate(9.068 0)" fill="none" stroke="#13395c" stroke-linecap="round" stroke-linejoin="round" stroke-miterlimit="10" stroke-width="1.2"/>
    <path id="Stroke_3" data-name="Stroke 3" d="M0,0A3.249,3.249,0,0,1,2.569,2.569" transform="translate(9.068 2.601)" fill="none" stroke="#13395c" stroke-linecap="round" stroke-linejoin="round" stroke-miterlimit="10" stroke-width="1.2"/>
    <path id="Stroke_5" data-name="Stroke 5" d="M6.63,7.32c2.928,2.927,3.592-.459,5.457,1.4,1.8,1.8,2.831,2.157.553,4.434-.285.229-2.1,2.987-8.467-3.38S.559,1.595.788,1.31C3.071-.973,3.426.066,5.223,1.863,7.087,3.726,3.7,4.393,6.63,7.32Z" transform="translate(0)" fill="none" stroke="#13395c" stroke-linecap="round" stroke-linejoin="round" stroke-miterlimit="10" stroke-width="1.2"/>
  </g>
</svg>
