<svg xmlns="http://www.w3.org/2000/svg" width="13.951" height="14.632" viewBox="0 0 13.951 14.632">
  <g id="Home" transform="translate(0.75 0.75)">
    <path id="Home-2" data-name="Home" d="M10.327,13.882H9.006a1.352,1.352,0,0,1-1.317-1.34V10.448a.461.461,0,0,0-.465-.455H5.26a.461.461,0,0,0-.459.455v2.087a.51.51,0,0,1-.021.145,1.354,1.354,0,0,1-1.347,1.2H2.124A2.865,2.865,0,0,1-.75,11.031V5.1s0,0,0-.005A2.144,2.144,0,0,1,.1,3.4L4.554-.171a2.675,2.675,0,0,1,3.321,0L12.35,3.4A2.158,2.158,0,0,1,13.2,5.087s0,0,0,.007v5.937A2.865,2.865,0,0,1,10.327,13.882Zm-1.3-1.021h1.3a1.843,1.843,0,0,0,1.853-1.829V5.1a1.144,1.144,0,0,0-.454-.895L11.718,4.2,7.24.626a1.643,1.643,0,0,0-2.049,0L.735,4.2l-.011.009A1.13,1.13,0,0,0,.271,5.1v5.928a1.843,1.843,0,0,0,1.853,1.829H3.433a.33.33,0,0,0,.334-.326.512.512,0,0,1,.013-.115V10.448A1.485,1.485,0,0,1,5.256,8.972H7.224A1.483,1.483,0,0,1,8.71,10.448v2.094A.325.325,0,0,0,9.025,12.861Z" fill="#13395c"/>
  </g>
</svg>
