<svg xmlns="http://www.w3.org/2000/svg" width="16.87" height="16.87" viewBox="0 0 16.87 16.87">
  <g id="Group_29" data-name="Group 29" transform="translate(-962.979 -327.9)">
    <path id="Path_35" data-name="Path 35" d="M86.643,4.815h-3V2.65a.462.462,0,0,0-.463-.463H73.967a1.78,1.78,0,0,0-1.779,1.779V16.642A2.218,2.218,0,0,0,74.4,18.857h12.24a2.218,2.218,0,0,0,2.215-2.215V7.031a2.218,2.218,0,0,0-2.215-2.215Zm-12.676-1.7h8.751v1.7H73.966a.852.852,0,1,1,0-1.7ZM87.932,16.642a1.29,1.29,0,0,1-1.29,1.29H74.4a1.29,1.29,0,0,1-1.29-1.29V5.524a1.78,1.78,0,0,0,.853.217H86.643a1.29,1.29,0,0,1,1.29,1.29Z" transform="translate(890.891 325.813)" fill="#13395c" stroke="#13395c" stroke-width="0.2"/>
    <path id="Path_36" data-name="Path 36" d="M426.039,148.2h-3.5a.473.473,0,0,0-.463.463v3.009a.462.462,0,0,0,.463.463h3.5a.462.462,0,0,0,.463-.463v-3.006a.463.463,0,0,0-.463-.466Zm-.466,3.009H423v-2.08h2.573Z" transform="translate(551.498 184.181)" fill="#13395c" stroke="#13395c" stroke-width="0.2"/>
    <path id="Path_37" data-name="Path 37" d="M143.4,321.67h-12.24a.463.463,0,1,0,0,.925H143.4a.463.463,0,0,0,0-.925Z" transform="translate(834.136 15.915)" fill="#13395c" stroke="#13395c" stroke-width="0.2"/>
    <path id="Path_38" data-name="Path 38" d="M131.161,249.421h6.12a.463.463,0,1,0,0-.925h-6.12a.463.463,0,1,0,0,.925Z" transform="translate(834.136 86.894)" fill="#13395c" stroke="#13395c" stroke-width="0.2"/>
    <path id="Path_39" data-name="Path 39" d="M143.4,394.84h-12.24a.463.463,0,0,0,0,.925H143.4a.463.463,0,0,0,0-.925Z" transform="translate(834.136 -55.06)" fill="#13395c" stroke="#13395c" stroke-width="0.2"/>
    <path id="Path_40" data-name="Path 40" d="M143.4,468.02h-12.24a.463.463,0,0,0,0,.925H143.4a.463.463,0,0,0,0-.925Z" transform="translate(834.136 -126.044)" fill="#13395c" stroke="#13395c" stroke-width="0.2"/>
    <path id="Path_41" data-name="Path 41" d="M133.616,154.341l.86,1.129h.4v-1.8h-.4v1.158l-.886-1.158h-.374v1.8h.4Z" transform="translate(831.694 178.877)" fill="#13395c" stroke="#13395c" stroke-width="0.2"/>
    <path id="Path_42" data-name="Path 42" d="M204.762,155.123h-.925v-.374h.807V154.4h-.807v-.371h.9v-.358h-1.3v1.8h1.329Z" transform="translate(763.583 178.869)" fill="#13395c" stroke="#13395c" stroke-width="0.2"/>
    <path id="Path_43" data-name="Path 43" d="M252.926,155.475l.394-1.253.394,1.253h.3l.63-1.8h-.436l-.358,1.037-.318-1.037h-.42l-.322,1.037-.354-1.037H252l.63,1.8Z" transform="translate(716.476 178.872)" fill="#13395c" stroke="#13395c" stroke-width="0.2"/>
    <path id="Path_44" data-name="Path 44" d="M343.335,153.757a.851.851,0,0,1-.538-.256l-.24.3a1.117,1.117,0,0,0,.771.318c.39,0,.66-.226.66-.545s-.2-.476-.541-.558c-.246-.066-.391-.108-.4-.236.013-.1.069-.174.217-.174a.8.8,0,0,1,.486.177l.2-.3a1.094,1.094,0,0,0-.676-.236c-.4.023-.633.187-.646.535,0,.328.194.479.607.571.177.043.345.092.331.226.007.115-.125.184-.236.177Z" transform="translate(628.633 180.255)" fill="#13395c" stroke="#13395c" stroke-width="0.2"/>
  </g>
</svg>
