<svg xmlns="http://www.w3.org/2000/svg" width="14.516" height="17.521" viewBox="0 0 14.516 17.521">
  <g id="noun-certified-3849524" transform="translate(-162.86 -53.915)" fill="#13395c">
    <path d="M 173.7184906005859 71.38549041748047 L 173.7173309326172 71.38548278808594 C 173.5682678222656 71.38449096679688 173.4253997802734 71.31301879882812 173.3351440429688 71.19430541992188 L 170.1179504394531 66.97853851318359 L 166.9006805419922 71.19437408447266 C 166.8104705810547 71.31303405761719 166.6675872802734 71.38449096679688 166.5185394287109 71.38548278808594 C 166.4743499755859 71.38378143310547 166.4330291748047 71.37741088867188 166.3934173583984 71.36649322509766 C 166.2077178955078 71.31887817382812 166.0686950683594 71.16484832763672 166.0400848388672 70.97431182861328 L 166.0314636230469 70.91689300537109 L 166.0325317382812 70.91689300537109 L 165.7810211181641 69.04330444335938 L 163.8592834472656 69.30238342285156 C 163.8393859863281 69.30477905273438 163.8198699951172 69.30595397949219 163.8005676269531 69.30595397949219 C 163.6297912597656 69.30595397949219 163.4699401855469 69.21449279785156 163.3833618164062 69.0672607421875 C 163.2858581542969 68.90126037597656 163.2960052490234 68.69340515136719 163.4091949462891 68.53768157958984 L 165.6180572509766 65.65379333496094 C 165.1199188232422 65.65070343017578 164.6357269287109 65.44483184814453 164.2880096435547 65.08787536621094 L 164.28271484375 65.08242034912109 L 164.2792663574219 65.07564544677734 C 164.0312194824219 64.58779907226562 164.0055999755859 64.01670837402344 164.2089691162109 63.5088005065918 C 164.2824096679688 63.26083374023438 164.3108520507812 63.00005722045898 164.2920837402344 62.73764038085938 C 164.1591949462891 62.52646255493164 163.9898376464844 62.34437561035156 163.7885589599609 62.19631195068359 C 163.3165130615234 61.89811325073242 162.9958648681641 61.40745162963867 162.9117431640625 60.85212326049805 L 162.9106140136719 60.84463119506836 L 162.9117431640625 60.83714294433594 C 162.995849609375 60.28185272216797 163.3164978027344 59.79119110107422 163.7914886474609 59.49097061157227 C 163.9898529052734 59.34490585327148 164.1591644287109 59.162841796875 164.2920837402344 58.95163345336914 C 164.3108520507812 58.68924713134766 164.2823944091797 58.42839431762695 164.2074584960938 58.17612075805664 C 164.0055999755859 57.67255020141602 164.0312194824219 57.10146331787109 164.2792663574219 56.61362075805664 L 164.2828674316406 56.60652160644531 L 164.2884979248047 56.60090255737305 C 164.6542205810547 56.23578262329102 165.1400909423828 56.03469085693359 165.6566314697266 56.03469085693359 C 165.6931915283203 56.03469085693359 165.7299194335938 56.03573226928711 165.7666320800781 56.03782272338867 L 165.7834625244141 56.037841796875 C 166.0356750488281 56.0378303527832 166.2812957763672 55.98876190185547 166.5136871337891 55.89194869995117 C 166.6826324462891 55.69492721557617 166.8094024658203 55.47011566162109 166.8905487060547 55.22357177734375 L 166.8966522216797 55.20881271362305 C 167.10546875 54.72136306762695 167.3421325683594 54.16888046264648 167.8911895751953 53.99173355102539 L 167.8947143554688 53.99059295654297 L 167.8983612060547 53.98998260498047 C 167.9990386962891 53.97329330444336 168.1017608642578 53.96482086181641 168.2037200927734 53.96482086181641 C 168.6380310058594 53.96482086181641 169.0613403320312 54.11764144897461 169.3956298828125 54.3951416015625 C 169.6119689941406 54.54900741577148 169.8558502197266 54.65785598754883 170.1178894042969 54.71659851074219 C 170.3799438476562 54.65786361694336 170.6238708496094 54.54898834228516 170.8431091308594 54.39288330078125 C 171.1744689941406 54.11765289306641 171.5977783203125 53.96482086181641 172.0320892333984 53.96482086181641 C 172.1340484619141 53.96482086181641 172.2367706298828 53.97329330444336 172.3374328613281 53.98998260498047 L 172.3410797119141 53.99059295654297 L 172.3446044921875 53.99173355102539 C 172.8935241699219 54.16883087158203 173.1302032470703 54.72119140625 173.3390350341797 55.20854187011719 L 173.3437347412109 55.21950149536133 C 173.4263458251953 55.46999740600586 173.5531158447266 55.69485473632812 173.7221221923828 55.89194107055664 C 173.9545440673828 55.98876571655273 174.2001800537109 56.037841796875 174.452392578125 56.037841796875 L 174.4715118408203 56.03774261474609 C 174.5059509277344 56.03573226928711 174.5425720214844 56.03469085693359 174.5792083740234 56.03469085693359 C 175.0957183837891 56.03469085693359 175.5815887451172 56.23577117919922 175.9472808837891 56.60090255737305 L 175.9529113769531 56.60652160644531 L 175.9565277099609 56.61362075805664 C 176.20458984375 57.1014518737793 176.230224609375 57.67254257202148 176.0268249511719 58.18047332763672 C 175.9533996582031 58.42842102050781 175.9249725341797 58.68921279907227 175.9437103271484 58.95163726806641 C 176.0765991210938 59.16281890869141 176.2459564208984 59.34490585327148 176.4472351074219 59.49296188354492 C 176.9192962646484 59.79116058349609 177.2399444580078 60.28182220458984 177.3240661621094 60.83714294433594 L 177.3251953125 60.84463119506836 L 177.3240661621094 60.85212326049805 C 177.2399749755859 61.40739059448242 176.9193115234375 61.89805221557617 176.4443206787109 62.19829177856445 C 176.2459716796875 62.34433746337891 176.07666015625 62.52637481689453 175.9437103271484 62.73764038085938 C 175.9249725341797 63.00009536743164 175.9534301757812 63.26094055175781 176.0283355712891 63.51315307617188 C 176.2302093505859 64.01673126220703 176.2046051025391 64.58782196044922 175.95654296875 65.07564544677734 L 175.9530944824219 65.08242034912109 L 175.9477996826172 65.08787536621094 C 175.6000518798828 65.44485473632812 175.1158599853516 65.65073394775391 174.6177673339844 65.65380859375 L 176.825927734375 68.53668212890625 C 176.9398651123047 68.69338989257812 176.9500122070312 68.90125274658203 176.8525390625 69.06724548339844 C 176.7659454345703 69.21449279785156 176.6060791015625 69.30595397949219 176.4353179931641 69.30595397949219 C 176.4353179931641 69.30595397949219 176.435302734375 69.30595397949219 176.4352874755859 69.30595397949219 C 176.4160003662109 69.30595397949219 176.396484375 69.30477905273438 176.3773040771484 69.30247497558594 L 176.3777770996094 69.29456329345703 L 176.3767242431641 69.30238342285156 L 174.4550018310547 69.04330444335938 L 174.1959075927734 70.97354125976562 C 174.1671905517578 71.16484832763672 174.0281524658203 71.31887817382812 173.8415985107422 71.36672210693359 C 173.8028411865234 71.37741088867188 173.7615203857422 71.38378143310547 173.7196502685547 71.38544464111328 L 173.7184906005859 71.38549041748047 Z M 166.6736602783203 68.46503448486328 L 166.8347625732422 69.7003173828125 L 168.3313293457031 67.743896484375 C 168.2959899902344 67.74730682373047 168.260498046875 67.7490234375 168.2250671386719 67.7490234375 C 168.1117248535156 67.7490234375 167.9994812011719 67.731689453125 167.8914489746094 67.69750213623047 C 167.3422698974609 67.52032470703125 167.1056060791016 66.96797180175781 166.8967895507812 66.48064422607422 L 166.8920745849609 66.46961975097656 C 166.8213958740234 66.27480316162109 166.7296905517578 66.09044647216797 166.6182708740234 65.91873168945312 L 164.8744659423828 68.20090484619141 L 166.1256256103516 68.02882385253906 C 166.146240234375 68.02629852294922 166.1663818359375 68.02507019042969 166.1862487792969 68.02507019042969 C 166.4288635253906 68.02507019042969 166.6324920654297 68.19921112060547 166.6704406738281 68.43913269042969 L 166.6744079589844 68.46429443359375 L 166.6736602783203 68.46503448486328 Z M 171.9054107666016 67.74502563476562 L 173.4010009765625 69.70014953613281 L 173.5652770996094 68.44046020507812 C 173.6034240722656 68.19920349121094 173.8070678710938 68.02507019042969 174.0496673583984 68.02507019042969 C 174.0695495605469 68.02507019042969 174.0896911621094 68.02629852294922 174.1095275878906 68.02872467041016 L 174.2070922851562 68.04061126708984 L 174.2057037353516 68.04209899902344 L 175.3613739013672 68.20089721679688 L 173.6175689697266 65.91870880126953 C 173.5061340332031 66.09044647216797 173.4145202636719 66.27454376220703 173.3448333740234 66.46693420410156 L 173.339111328125 66.48048400878906 C 173.1303100585938 66.96784973144531 172.8936462402344 67.520263671875 172.3446350097656 67.69738006591797 C 172.2436370849609 67.73190307617188 172.137451171875 67.75009918212891 172.0298309326172 67.751220703125 L 172.0233459472656 67.75124359130859 C 171.9840393066406 67.75124359130859 171.9446411132812 67.74916076660156 171.9054107666016 67.74502563476562 Z M 167.7738800048828 66.09047698974609 C 167.8682861328125 66.31961822509766 168.0428771972656 66.74237823486328 168.1874237060547 66.78800201416016 C 168.1980743408203 66.79192352294922 168.2087249755859 66.79346466064453 168.2216186523438 66.79346466064453 C 168.37109375 66.79346466064453 168.7027282714844 66.59451293945312 168.90087890625 66.47563171386719 C 169.1321563720703 66.32845306396484 169.3801879882812 66.20294952392578 169.6369781494141 66.10330963134766 L 169.6457214355469 66.09992218017578 L 169.6550750732422 66.09992218017578 C 169.6610107421875 66.09754180908203 169.6669921875 66.09511566162109 169.6734924316406 66.09346771240234 C 169.7046203613281 66.07833099365234 169.7386322021484 66.06914520263672 169.773193359375 66.06649017333984 C 169.7813415527344 66.06116485595703 169.7900848388672 66.05812835693359 169.8020477294922 66.05728149414062 C 169.9053039550781 66.0302734375 170.0113372802734 66.01581573486328 170.1172637939453 66.01428985595703 L 170.1178894042969 66.05803680419922 L 170.1178283691406 66.0142822265625 C 170.2248687744141 66.01580810546875 170.3311920166016 66.03034210205078 170.4347839355469 66.05748748779297 C 170.4439086914062 66.05821228027344 170.4511413574219 66.06022644042969 170.4576721191406 66.06356811523438 L 170.4718475341797 66.06733703613281 C 170.5031433105469 66.07078552246094 170.5338592529297 66.07959747314453 170.5621948242188 66.09331512451172 C 170.5683441162109 66.09480285644531 170.5733489990234 66.09686279296875 170.5769500732422 66.09835052490234 L 170.5863037109375 66.09835052490234 L 170.5990295410156 66.10330963134766 C 170.8540954589844 66.20228576660156 171.1004943847656 66.32675170898438 171.3314208984375 66.47325897216797 L 171.3351287841797 66.47547912597656 C 171.4926452636719 66.56998443603516 171.8614959716797 66.79129028320312 172.0207214355469 66.79128265380859 C 172.0318908691406 66.79128265380859 172.0413055419922 66.79011535644531 172.0486907958984 66.78780364990234 C 172.1937408447266 66.74201202392578 172.3689575195312 66.31655883789062 172.4630889892578 66.08798980712891 C 172.593505859375 65.68372344970703 172.8325958251953 65.31752014160156 173.1531677246094 65.03263854980469 C 173.2834320068359 64.93719482421875 173.4247894287109 64.87100219726562 173.5770416259766 64.83289337158203 L 173.5804138183594 64.83204650878906 C 173.5871276855469 64.82878112792969 173.5955352783203 64.82506561279297 173.6056518554688 64.82356262207031 C 173.8598327636719 64.75408935546875 174.1221313476562 64.71078491210938 174.3855133056641 64.69480895996094 L 174.3908233642578 64.69435119628906 C 174.5821685791016 64.67841339111328 175.0904846191406 64.63603973388672 175.1774597167969 64.51746368408203 C 175.2566375732422 64.40953826904297 175.1647796630859 64.00807189941406 175.1039886474609 63.74241256713867 L 175.1004333496094 63.72684097290039 C 174.9661560058594 63.31653213500977 174.9419403076172 62.87195205688477 175.0316314697266 62.44554138183594 L 175.0327911376953 62.44009017944336 L 175.0350952148438 62.43502044677734 C 175.2113494873047 62.04986572265625 175.4856109619141 61.71486663818359 175.8282928466797 61.46607971191406 C 176.0170288085938 61.3034553527832 176.3675537109375 61.00128555297852 176.3675537109375 60.84445190429688 C 176.3675537109375 60.69761276245117 176.0609588623047 60.42275238037109 175.8370971679688 60.22206115722656 L 175.8292388916016 60.21502304077148 C 175.4842834472656 59.9709587097168 175.2096862792969 59.63860702514648 175.0350341796875 59.25369262695312 L 175.0327606201172 59.24869155883789 L 175.0316314697266 59.24332046508789 C 174.9419403076172 58.81689071655273 174.9661560058594 58.37231063842773 175.1016387939453 57.9576416015625 L 175.1039886474609 57.94648361206055 C 175.1647796630859 57.68080139160156 175.2566375732422 57.27931213378906 175.1774597167969 57.17141342163086 C 175.0904693603516 57.05283355712891 174.5821685791016 57.01046371459961 174.3908233642578 56.99452209472656 L 174.3891296386719 56.99470138549805 C 173.9578247070312 56.99470138549805 173.5331878662109 56.87966156005859 173.1611328125 56.66201019287109 L 173.1568603515625 56.65951156616211 L 173.1531677246094 56.65622329711914 C 172.8328857421875 56.3715934753418 172.5939178466797 56.00577545166016 172.4620819091797 55.59831619262695 C 172.36767578125 55.36916351318359 172.1931457519531 54.94651031494141 172.0485687255859 54.90087127685547 C 172.0413818359375 54.89863204956055 172.0319976806641 54.8974723815918 172.0208892822266 54.8974723815918 C 171.8614196777344 54.8974723815918 171.4790802001953 55.12688064575195 171.3351440429688 55.21324157714844 C 170.9817047119141 55.46894073486328 170.5613708496094 55.62924194335938 170.1231384277344 55.67448043823242 L 170.1180114746094 55.67501068115234 L 170.1128845214844 55.67448043823242 C 169.6746673583984 55.62925338745117 169.2543334960938 55.46895217895508 168.8973083496094 55.21089172363281 C 168.6876525878906 55.06472396850586 168.455078125 54.95798492431641 168.2067413330078 54.89411163330078 C 168.2067108154297 54.89411163330078 168.2066955566406 54.89411163330078 168.2066802978516 54.89411163330078 C 168.2027587890625 54.89411163330078 168.2003936767578 54.89484786987305 168.1982727050781 54.89613342285156 L 168.1931610107422 54.89923095703125 L 168.1874389648438 54.90103149414062 C 168.0422515869141 54.94687271118164 167.8670501708984 55.37232208251953 167.7729339599609 55.60089111328125 C 167.6425476074219 56.00512313842773 167.4034423828125 56.37132263183594 167.0828399658203 56.65622329711914 L 167.0791473388672 56.65951156616211 L 167.0748901367188 56.66201019287109 C 166.7028198242188 56.87966156005859 166.2781982421875 56.99470138549805 165.8468780517578 56.99470138549805 L 165.8431091308594 56.99469375610352 C 165.6501922607422 57.01076889038086 165.1452484130859 57.05323028564453 165.0585784912109 57.17140197753906 C 164.9793853759766 57.27933120727539 165.0712432861328 57.68080139160156 165.1320343017578 57.94646072387695 L 165.1355895996094 57.96203231811523 C 165.2698364257812 58.37227249145508 165.2940521240234 58.81685256958008 165.2043762207031 59.24333190917969 L 165.2032470703125 59.24870300292969 L 165.2009735107422 59.25370025634766 C 165.0264282226562 59.63835525512695 164.7521057128906 59.97052001953125 164.4075317382812 60.21450424194336 L 164.3989868164062 60.22216033935547 C 164.1750793457031 60.42288208007812 163.8684539794922 60.69777297973633 163.8684539794922 60.84461212158203 C 163.8684539794922 61.0012321472168 164.2195587158203 61.30398178100586 164.4081878662109 61.46663284301758 C 164.7488403320312 61.71295166015625 165.0241088867188 62.04873275756836 165.2008972167969 62.43502044677734 L 165.2032318115234 62.44009017944336 L 165.2043762207031 62.44554138183594 C 165.2938537597656 62.87118148803711 165.2699279785156 63.31483459472656 165.1351928710938 63.72872924804688 L 165.1320190429688 63.74265289306641 C 165.0712280273438 64.00829315185547 164.9793701171875 64.40972900390625 165.0585632324219 64.51760101318359 C 165.1455535888672 64.63619995117188 165.6538391113281 64.67855834960938 165.8451995849609 64.69451141357422 C 166.0877075195312 64.70986938476562 166.3317565917969 64.74751281738281 166.5696716308594 64.80632781982422 C 166.6238403320312 64.81217956542969 166.6761322021484 64.82749938964844 166.7252197265625 64.85189819335938 C 166.8531799316406 64.8897705078125 166.9723815917969 64.94967651367188 167.07958984375 65.03001403808594 C 167.4030914306641 65.31726837158203 167.6420440673828 65.68304443359375 167.7738800048828 66.09047698974609 Z M 170.1179809570312 65.60863494873047 L 170.1179351806641 65.60863494873047 C 168.8454284667969 65.60863494873047 167.6490631103516 65.11312103271484 166.7492218017578 64.21337890625 C 165.8494567871094 63.31352233886719 165.3539428710938 62.11715316772461 165.3539428710938 60.84463119506836 C 165.3539428710938 59.57211303710938 165.8494567871094 58.37574005126953 166.7492065429688 57.47590255737305 C 167.6490631103516 56.57614135742188 168.8454284667969 56.08063125610352 170.1179351806641 56.08063125610352 C 171.3904418945312 56.08063125610352 172.5868072509766 56.57614135742188 173.4866485595703 57.47589111328125 C 174.3864288330078 58.37575149536133 174.8819427490234 59.57212066650391 174.8819427490234 60.84463119506836 C 174.8805694580078 62.11656188964844 174.384521484375 63.31239318847656 173.4851837158203 64.21188354492188 C 172.5856781005859 65.11122894287109 171.3898620605469 65.60726928710938 170.1179809570312 65.60863494873047 Z M 170.1178894042969 57.03769302368164 C 169.1011352539062 57.03769302368164 168.1451263427734 57.43367004394531 167.4259490966797 58.15270233154297 C 166.7069396972656 58.87186050415039 166.3109741210938 59.82787322998047 166.3109741210938 60.84463119506836 C 166.3109741210938 61.86139297485352 166.7069396972656 62.81740188598633 167.4259490966797 63.53658294677734 C 168.1451110839844 64.25559234619141 169.1011199951172 64.65157318115234 170.1178894042969 64.65157318115234 C 171.1343231201172 64.650390625 172.0898895263672 64.25392913818359 172.8084716796875 63.53524017333984 C 173.5271759033203 62.81669998168945 173.9236450195312 61.86113357543945 173.9248352050781 60.84457015991211 C 173.9248352050781 59.82786178588867 173.5288543701172 58.87185287475586 172.8098297119141 58.15269088745117 C 172.0906524658203 57.43367004394531 171.1346435546875 57.03769302368164 170.1178894042969 57.03769302368164 Z M 171.5032806396484 63.47727203369141 C 171.4261474609375 63.47727203369141 171.3492584228516 63.45830154418945 171.2808990478516 63.42242050170898 L 170.1179656982422 62.81150436401367 L 168.9550476074219 63.42241287231445 C 168.8867492675781 63.45816040039062 168.8099822998047 63.47704315185547 168.7329864501953 63.47704315185547 C 168.63134765625 63.47704315185547 168.5341796875 63.44552230834961 168.4519653320312 63.38589096069336 C 168.3037719726562 63.27834320068359 168.2306213378906 63.09946060180664 168.2610321044922 62.91905212402344 L 168.48291015625 61.62395477294922 L 167.5426330566406 60.70722198486328 C 167.4112091064453 60.57919311523438 167.3647613525391 60.39119338989258 167.4214477539062 60.21658325195312 C 167.4781188964844 60.0420036315918 167.6261749267578 59.91715240478516 167.8078308105469 59.89078140258789 L 169.107666015625 59.70175170898438 L 169.6856994628906 58.52549362182617 C 169.7755889892578 58.36992263793945 169.9399871826172 58.27514266967773 170.1163330078125 58.27514266967773 C 170.2925872802734 58.27514266967773 170.4569244384766 58.36992263793945 170.5452117919922 58.52250289916992 L 171.128173828125 59.70165634155273 L 172.4278106689453 59.88656234741211 L 172.4612579345703 59.89132308959961 L 172.4626312255859 59.89692306518555 C 172.6267242431641 59.93315124511719 172.7631072998047 60.0555534362793 172.8153839111328 60.21658325195312 C 172.8604431152344 60.35533905029297 172.8403167724609 60.50256729125977 172.76416015625 60.62142181396484 L 172.7820739746094 60.62142181396484 L 172.6941986083984 60.70722198486328 L 171.7539367675781 61.62395858764648 L 171.9757690429688 62.91891098022461 C 172.0060424804688 63.09980010986328 171.9326934814453 63.27873229980469 171.7843627929688 63.38607025146484 C 171.7020721435547 63.44572067260742 171.6048583984375 63.47727203369141 171.5032806396484 63.47727203369141 Z M 170.3286743164062 61.83674240112305 L 170.3290863037109 61.83674240112305 L 170.3401489257812 61.84247207641602 L 170.8676910400391 62.11946105957031 L 170.7672882080078 61.53346252441406 C 170.7466735839844 61.41508483886719 170.7716064453125 61.29474258422852 170.8346710205078 61.19538116455078 L 170.8174591064453 61.19538116455078 L 170.9036865234375 61.10983276367188 L 171.3237915039062 60.69443893432617 L 170.7372589111328 60.60866165161133 C 170.5917816162109 60.58716583251953 170.4649810791016 60.50040435791016 170.3922729492188 60.37422180175781 L 170.3911895751953 60.37422180175781 L 170.3772735595703 60.34636306762695 L 170.1136016845703 59.81239318847656 L 169.8499603271484 60.34636306762695 C 169.7806243896484 60.48749160766602 169.6461029052734 60.5855712890625 169.4901580810547 60.60865020751953 L 168.9046173095703 60.69428634643555 L 169.3316497802734 61.10953140258789 C 169.4302978515625 61.20598602294922 169.4818115234375 61.33927536010742 169.4751281738281 61.47502136230469 L 169.4786376953125 61.47502136230469 L 169.4687805175781 61.53346252441406 L 169.3683776855469 62.11946105957031 L 169.8959197998047 61.84247207641602 C 169.9641876220703 61.80674362182617 170.0409698486328 61.78787231445312 170.1179656982422 61.78787231445312 C 170.1907653808594 61.78787231445312 170.2633361816406 61.80473709106445 170.3286743164062 61.83674240112305 Z" stroke="none"/>
    <path d="M 168.2036895751953 54.01481628417969 C 168.1048431396484 54.01481628417969 168.0055084228516 54.02288818359375 167.9065399169922 54.03929901123047 C 167.3751983642578 54.21073913574219 167.1436462402344 54.75928497314453 166.9380340576172 55.23920440673828 C 166.8540191650391 55.49449920654297 166.719970703125 55.73049926757812 166.5438842773438 55.93349456787109 C 166.2972412109375 56.0379638671875 166.0322570800781 56.09046936035156 165.7637939453125 56.08773803710938 C 165.2277221679688 56.057373046875 164.7039337158203 56.25678253173828 164.3238372802734 56.63628387451172 C 164.0823211669922 57.11128234863281 164.0573577880859 57.66728973388672 164.2553863525391 58.16188049316406 C 164.3329467773438 58.42298889160156 164.3619689941406 58.69607543945312 164.3410339355469 58.96765899658203 C 164.2044219970703 59.18768310546875 164.0268402099609 59.3797607421875 163.8181915283203 59.53324127197266 C 163.3558959960938 59.825439453125 163.0430755615234 60.30389404296875 162.961181640625 60.84463500976562 C 163.0430908203125 61.38541030883789 163.3558959960938 61.86385345458984 163.8181915283203 62.15603256225586 C 164.0268402099609 62.30953216552734 164.2044219970703 62.50159072875977 164.3410339355469 62.72160339355469 C 164.3619689941406 62.99319076538086 164.3329620361328 63.26624298095703 164.2553863525391 63.52739334106445 C 164.0573577880859 64.02197265625 164.0823211669922 64.57798767089844 164.3238372802734 65.052978515625 C 164.6891326904297 65.42799377441406 165.1980438232422 65.62776184082031 165.7210693359375 65.60153198242188 L 163.4496307373047 68.56707763671875 C 163.3481597900391 68.70668029785156 163.3390350341797 68.89306640625 163.4264678955078 69.04192352294922 C 163.513916015625 69.19064331054688 163.6811981201172 69.27346801757812 163.8526000976562 69.25283050537109 L 165.8239288330078 68.98707580566406 L 166.0896911621094 70.96688842773438 L 166.0895385742188 70.96688842773438 C 166.1150970458984 71.13714599609375 166.2400512695312 71.27555084228516 166.4067077636719 71.31829071044922 C 166.4430236816406 71.32830047607422 166.4805450439453 71.33399200439453 166.5182037353516 71.33547973632812 C 166.6528625488281 71.33457946777344 166.7794647216797 71.27120208740234 166.8609313964844 71.16404724121094 L 170.0922241210938 66.92982482910156 C 170.1074829101562 66.91845703125 170.1284027099609 66.91845703125 170.1436614990234 66.92982482910156 L 173.3749542236328 71.16404724121094 C 173.4564056396484 71.27120208740234 173.5830078125 71.33457946777344 173.7176666259766 71.33547973632812 C 173.7553253173828 71.33399200439453 173.7928466796875 71.32830047607422 173.8291778564453 71.31829071044922 C 173.9958343505859 71.27555084228516 174.1207885742188 71.13714599609375 174.1463470458984 70.96688842773438 L 174.4120941162109 68.98707580566406 L 176.3834075927734 69.25283050537109 L 176.3832702636719 69.25283050537109 C 176.5548095703125 69.27346801757812 176.7219696044922 69.19065856933594 176.8094177246094 69.04192352294922 C 176.8968353271484 68.89306640625 176.8877105712891 68.70668029785156 176.7862396240234 68.56707763671875 L 174.5147399902344 65.60153198242188 C 175.0375518798828 65.62783050537109 175.5466613769531 65.42799377441406 175.9119720458984 65.052978515625 C 176.1535034179688 64.57798767089844 176.1784515380859 64.02197265625 175.9804077148438 63.52739334106445 C 175.9028472900391 63.26627349853516 175.8738555908203 62.99319076538086 175.8947601318359 62.72160339355469 C 176.0313873291016 62.50159072875977 176.2089385986328 62.30951309204102 176.4176025390625 62.15603256225586 C 176.8798980712891 61.86382293701172 177.1927337646484 61.38537216186523 177.2746276855469 60.84463500976562 C 177.1927185058594 60.30386352539062 176.8798980712891 59.82540893554688 176.4176025390625 59.53324127197266 C 176.2089385986328 59.37974548339844 176.0313568115234 59.18767547607422 175.8947601318359 58.96765899658203 C 175.8738555908203 58.69608306884766 175.9028472900391 58.42303466796875 175.9804077148438 58.16188049316406 C 176.178466796875 57.66728973388672 176.1535034179688 57.11128234863281 175.9119567871094 56.63628387451172 C 175.5318450927734 56.25678253173828 175.0081634521484 56.05723571777344 174.4720001220703 56.08773803710938 C 174.2045288085938 56.09059906005859 173.9385681152344 56.03797912597656 173.6919250488281 55.93349456787109 C 173.5158538818359 55.73052215576172 173.3817749023438 55.49449920654297 173.2977752685547 55.23920440673828 C 173.0921020507812 54.75928497314453 172.8605651855469 54.21073150634766 172.3292541503906 54.03929901123047 C 171.8092956542969 53.95307159423828 171.2776184082031 54.09700775146484 170.8721008300781 54.43360900878906 C 170.6458129882812 54.59473419189453 170.3893432617188 54.70848083496094 170.1178894042969 54.76781463623047 C 169.8464660644531 54.70848083496094 169.5899810791016 54.59473419189453 169.3636932373047 54.43360900878906 C 169.0353698730469 54.16107177734375 168.6242828369141 54.01481628417969 168.2036895751953 54.01481628417969 M 170.1180114746094 55.62474060058594 C 170.5481719970703 55.58034515380859 170.9589233398438 55.42371368408203 171.3094177246094 55.17037200927734 C 171.5664978027344 55.01612091064453 171.9264678955078 54.81039428710938 172.0636138916016 54.85319519042969 C 172.2265472412109 54.90462493896484 172.3893127441406 55.29039001464844 172.5093078613281 55.58169555664062 L 172.5093078613281 55.58184814453125 C 172.6384429931641 55.98165130615234 172.8723754882812 56.33980560302734 173.1863861083984 56.61885070800781 C 173.5513305664062 56.83233642578125 173.9662933349609 56.94468688964844 174.3890686035156 56.94468688964844 C 174.3910522460938 56.94468688964844 174.3930053710938 56.94468688964844 174.3949737548828 56.94467926025391 C 174.7034606933594 56.97040557861328 175.1234741210938 57.0133056640625 175.2177734375 57.14183044433594 C 175.3121032714844 57.27037048339844 175.2177734375 57.67319488525391 175.149169921875 57.97317504882812 C 175.0162811279297 58.37987518310547 174.9925079345703 58.81435394287109 175.08056640625 59.2330322265625 C 175.2521514892578 59.61118316650391 175.5213623046875 59.93656921386719 175.8604888916016 60.17588043212891 C 176.1090393066406 60.39873504638672 176.4175567626953 60.67298889160156 176.4175567626953 60.84445190429688 C 176.4175567626953 61.01591491699219 176.1090698242188 61.29014205932617 175.8604888916016 61.50435256958008 L 175.8604888916016 61.50450134277344 C 175.5228424072266 61.74887084960938 175.2540893554688 62.07664108276367 175.08056640625 62.45583343505859 C 174.9925079345703 62.87448120117188 175.0162811279297 63.30898284912109 175.149169921875 63.71569061279297 C 175.2177734375 64.01567077636719 175.3121032714844 64.41847229003906 175.2177734375 64.54702758789062 C 175.1234741210938 64.67559814453125 174.7034759521484 64.71847534179688 174.3949737548828 64.74418640136719 L 174.3949737548828 64.74433135986328 C 174.1311645507812 64.75988006591797 173.8697357177734 64.80291748046875 173.6148986816406 64.87287139892578 C 173.6063842773438 64.87287139892578 173.5977020263672 64.88139343261719 173.5891723632812 64.88139343261719 C 173.4440460205078 64.917724609375 173.3072814941406 64.981689453125 173.1863861083984 65.07000732421875 C 172.8723602294922 65.34907531738281 172.6384735107422 65.70718383789062 172.5093231201172 66.10703277587891 C 172.3892974853516 66.39848327636719 172.2265319824219 66.78408813476562 172.0636138916016 66.83552551269531 C 171.9265747070312 66.87838745117188 171.5665435791016 66.67262268066406 171.3094177246094 66.51835632324219 L 171.3094177246094 66.51850891113281 C 171.0792388916016 66.37203216552734 170.8351440429688 66.24856567382812 170.5809326171875 66.14991760253906 C 170.5637359619141 66.14991760253906 170.5552215576172 66.14141082763672 170.5466918945312 66.14141082763672 L 170.5465545654297 66.14141082763672 C 170.5148468017578 66.12481689453125 170.4795989990234 66.11599731445312 170.4437103271484 66.11569213867188 C 170.4351806640625 66.107177734375 170.4351806640625 66.107177734375 170.4265289306641 66.107177734375 L 170.4265289306641 66.10702514648438 C 170.325927734375 66.08027648925781 170.2222137451172 66.06577301025391 170.1180267333984 66.06428527832031 L 170.1178283691406 66.06428527832031 L 170.1179809570312 66.06428527832031 C 170.0137939453125 66.06578063964844 169.9100646972656 66.08027648925781 169.8094787597656 66.10703277587891 C 169.8009490966797 66.10703277587891 169.8009490966797 66.10703277587891 169.7922821044922 66.11555480957031 L 169.7922821044922 66.11569213867188 C 169.7564239501953 66.11599731445312 169.7211303710938 66.12481689453125 169.6894683837891 66.14141082763672 C 169.6809387207031 66.14141082763672 169.6722717285156 66.14991760253906 169.6552276611328 66.14991760253906 L 169.6550750732422 66.14991760253906 C 169.4008331298828 66.24857330322266 169.1567840576172 66.37203979492188 168.9265899658203 66.51850891113281 C 168.6694793701172 66.67274475097656 168.3092651367188 66.8870849609375 168.1723785400391 66.83567810058594 C 168.0094604492188 66.78426361083984 167.8466949462891 66.39848327636719 167.7266845703125 66.107177734375 L 167.7266845703125 66.10703277587891 C 167.5975494384766 65.70721435546875 167.3636169433594 65.34907531738281 167.0496063232422 65.07002258300781 C 166.9464721679688 64.99273681640625 166.8303375244141 64.93460083007812 166.7067413330078 64.89858245849609 C 166.6613159179688 64.87542724609375 166.6118469238281 64.86077117919922 166.5610046386719 64.85569000244141 C 166.3248596191406 64.79710388183594 166.0839080810547 64.75973510742188 165.8410491943359 64.74433898925781 C 165.5325622558594 64.7186279296875 165.112548828125 64.67573547363281 165.0182495117188 64.54719543457031 C 164.9239044189453 64.41865539550781 165.0182495117188 64.01582336425781 165.0868530273438 63.71584320068359 L 165.0868530273438 63.71569061279297 C 165.2197265625 63.30899047851562 165.2434692382812 62.87451171875 165.1554412841797 62.45583343505859 C 164.9819030761719 62.07664108276367 164.7131652832031 61.74885177612305 164.3755340576172 61.50450134277344 C 164.1269683837891 61.2901611328125 163.8184509277344 61.015869140625 163.8184509277344 60.84461212158203 C 163.8184509277344 60.67317199707031 164.126953125 60.39891052246094 164.3755340576172 60.17603302001953 L 164.3755340576172 60.17588806152344 C 164.7146759033203 59.93658447265625 164.9838409423828 59.61119079589844 165.1554412841797 59.23303985595703 C 165.2434692382812 58.81439971923828 165.2197265625 58.3798828125 165.0868530273438 57.97318267822266 C 165.0182495117188 57.67320251464844 164.9239196777344 57.27040100097656 165.0182495117188 57.14183044433594 C 165.112548828125 57.01327514648438 165.5325317382812 56.97039031982422 165.8410491943359 56.94467926025391 C 166.2648162841797 56.94661712646484 166.6829986572266 56.83332824707031 167.0496368408203 56.61885070800781 C 167.3636474609375 56.33980560302734 167.5975646972656 55.981689453125 167.7266998291016 55.58184814453125 C 167.8467254638672 55.29038238525391 168.0094909667969 54.90478515625 168.1723937988281 54.85335540771484 C 168.1852569580078 54.8455810546875 168.2003021240234 54.84244537353516 168.2152862548828 54.84468078613281 C 168.4699859619141 54.90969848632812 168.7109222412109 55.02000427246094 168.9266052246094 55.17037200927734 C 169.277099609375 55.42371368408203 169.6878509521484 55.58035278320312 170.1180114746094 55.62474060058594 M 175.4747619628906 68.26693725585938 L 174.1033325195312 68.07850646972656 L 174.1034698486328 68.07835388183594 C 173.8681640625 68.04966735839844 173.6519470214844 68.21257019042969 173.6148529052734 68.44692993164062 L 173.4349060058594 69.82676696777344 L 171.7892761230469 67.67550659179688 C 171.8680419921875 67.6929931640625 171.9487609863281 67.7017822265625 172.0293121337891 67.70121765136719 C 172.1313934326172 67.70016479492188 172.2325744628906 67.68284606933594 172.3292846679688 67.64980316162109 C 172.8606567382812 67.47836303710938 173.0921783447266 66.92984008789062 173.2978210449219 66.44990539550781 C 173.3768768310547 66.23168182373047 173.4834594726562 66.02422332763672 173.6148223876953 65.83274841308594 L 175.4747619628906 68.26693725585938 M 168.2250671386719 67.69902038574219 C 168.2992248535156 67.69902038574219 168.3734588623047 67.69121551513672 168.4465637207031 67.675537109375 L 166.8008575439453 69.82694244384766 L 166.6208953857422 68.44709014892578 L 166.6210479736328 68.44694519042969 C 166.5839996337891 68.21257019042969 166.3681335449219 68.04971313476562 166.1324310302734 68.07835388183594 L 164.7610626220703 68.2669677734375 L 166.6210174560547 65.83277893066406 C 166.7523956298828 66.02424621582031 166.8589630126953 66.23171997070312 166.9380340576172 66.44993591308594 C 167.1437072753906 66.92987060546875 167.3752136230469 67.47840881347656 167.9065399169922 67.64983367919922 C 168.0099945068359 67.68257141113281 168.1174468994141 67.69902038574219 168.2250671386719 67.69902038574219 M 170.1179351806641 56.13063049316406 C 168.8676452636719 56.13063049316406 167.6686248779297 56.62728881835938 166.7845611572266 57.51125335693359 C 165.9005889892578 58.39532470703125 165.4039459228516 59.59434509277344 165.4039459228516 60.84463500976562 C 165.4039459228516 62.09492111206055 165.9005889892578 63.29394149780273 166.7845611572266 64.17802429199219 C 167.6686248779297 65.06197357177734 168.8676452636719 65.55863189697266 170.1179351806641 65.55863189697266 C 171.3677825927734 65.55729675292969 172.5660247802734 65.0601806640625 173.4498291015625 64.17652893066406 C 174.3334808349609 63.29272079467773 174.8305969238281 62.0944709777832 174.8319396972656 60.84463500976562 C 174.8319396972656 59.59434509277344 174.3352813720703 58.39532470703125 173.4513092041016 57.51125335693359 C 172.5672454833984 56.62728881835938 171.3682403564453 56.13063049316406 170.1179351806641 56.13063049316406 M 170.1178741455078 64.70159912109375 L 170.1178894042969 64.70156860351562 C 169.094970703125 64.70156860351562 168.1139984130859 64.29518127441406 167.3905944824219 63.57193374633789 C 166.6673583984375 62.8485221862793 166.2609710693359 61.86757278442383 166.2609710693359 60.84463500976562 C 166.2609710693359 59.82170104980469 166.6673583984375 58.84074401855469 167.3905944824219 58.11734008789062 C 168.1139984130859 57.39408874511719 169.094970703125 56.98769378662109 170.1178894042969 56.98769378662109 C 171.1408233642578 56.98769378662109 172.1217803955078 57.39408874511719 172.8451843261719 58.11734008789062 C 173.5684509277344 58.84074401855469 173.9748382568359 59.82170104980469 173.9748382568359 60.84463500976562 C 173.9736328125 61.86729049682617 173.5669403076172 62.84764099121094 172.8438262939453 63.57059097290039 C 172.1208343505859 64.29369354248047 171.1404876708984 64.70037841796875 170.1178741455078 64.70159912109375 M 170.1163330078125 58.32514190673828 C 169.9573059082031 58.32514190673828 169.8102264404297 58.40988922119141 169.7305603027344 58.54753875732422 L 169.1409149169922 59.74744415283203 L 167.8150177001953 59.94026184082031 C 167.6534423828125 59.96372222900391 167.5193786621094 60.07685852050781 167.4690093994141 60.23202514648438 C 167.4186401367188 60.38716125488281 167.4606475830078 60.55754852294922 167.5775299072266 60.67142486572266 L 168.53662109375 61.60650253295898 L 168.3103332519531 62.92736053466797 C 168.2832794189453 63.08788299560547 168.3495025634766 63.24975204467773 168.4813232421875 63.34542083740234 C 168.6129913330078 63.44093322753906 168.7875671386719 63.45362091064453 168.9318084716797 63.37815093994141 L 170.1179656982422 62.75503158569336 L 171.3041381835938 63.37815093994141 C 171.4485321044922 63.45394134521484 171.6231079101562 63.44121551513672 171.7550506591797 63.34556198120117 C 171.8870239257812 63.25006103515625 171.9533843994141 63.08803176879883 171.9264984130859 62.92735290527344 L 171.7002105712891 61.60650253295898 L 172.6593017578125 60.67142486572266 L 172.6591644287109 60.67142486572266 C 172.7761840820312 60.55753326416016 172.8181915283203 60.38713836669922 172.767822265625 60.23202514648438 C 172.7174530029297 60.07685852050781 172.5832214355469 59.96371459960938 172.4217987060547 59.94025421142578 L 172.4207611083984 59.93605804443359 L 171.0950317382812 59.74744415283203 L 170.5019378662109 58.54753875732422 C 170.4222869873047 58.40988922119141 170.2752075195312 58.32514190673828 170.1163330078125 58.32514190673828 M 170.9340515136719 62.21078109741211 L 170.3167572021484 61.88674163818359 C 170.1922454833984 61.82157897949219 170.0436706542969 61.82157897949219 169.9191589355469 61.88674163818359 L 169.302001953125 62.21078109741211 L 169.4194946289062 61.52502059936523 L 169.4193572998047 61.52502059936523 C 169.4435577392578 61.38602066040039 169.3976745605469 61.2440185546875 169.2967834472656 61.14537811279297 L 168.7971038818359 60.65948486328125 L 169.4828491210938 60.55918884277344 C 169.622314453125 60.53855133056641 169.7429351806641 60.45082092285156 169.8051300048828 60.32421875 L 170.1136016845703 59.699462890625 L 170.4222564697266 60.32421875 C 170.4844360351562 60.45082092285156 170.6048889160156 60.53855895996094 170.7445068359375 60.55918884277344 L 171.4302673339844 60.65948486328125 L 170.9388427734375 61.14537811279297 L 170.9391326904297 61.14537811279297 C 170.8382568359375 61.2440185546875 170.7923736572266 61.38602066040039 170.8165740966797 61.52502059936523 L 170.9340515136719 62.21078109741211 M 168.2036895751953 53.91482543945312 C 168.6484069824219 53.91482543945312 169.0818786621094 54.07086944580078 169.4246826171875 54.35427093505859 C 169.6346435546875 54.50318145751953 169.8677215576172 54.60775756835938 170.1178894042969 54.66532897949219 C 170.3680725097656 54.60776519775391 170.6011657714844 54.50318908691406 170.8111114501953 54.35427093505859 C 171.1539306640625 54.07086944580078 171.58740234375 53.91482543945312 172.0321197509766 53.91482543945312 C 172.1367645263672 53.91482543945312 172.2422332763672 53.92351531982422 172.3456115722656 53.94065093994141 L 172.3599700927734 53.94412994384766 C 172.9305267333984 54.12823486328125 173.1719665527344 54.69170379638672 173.3849945068359 55.18885040283203 L 173.3927612304688 55.20795440673828 C 173.4705657958984 55.44441223144531 173.5914916992188 55.66041564941406 173.7523498535156 55.85032653808594 C 173.9753723144531 55.94158935546875 174.2107696533203 55.98783874511719 174.452392578125 55.98783874511719 L 174.4709320068359 55.98775482177734 C 174.5040588378906 55.98574829101562 174.5416259765625 55.98469543457031 174.5792083740234 55.98469543457031 C 175.1090698242188 55.98469543457031 175.6074676513672 56.19096374511719 175.9826049804688 56.56551361083984 L 175.9938812255859 56.57675933837891 L 176.0010986328125 56.59095001220703 C 176.2549743652344 57.09022521972656 176.2818450927734 57.67446136474609 176.0749969482422 58.19465637207031 C 176.0039215087891 58.43576812744141 175.9762725830078 58.68486785888672 175.9927215576172 58.93556213378906 C 176.1206207275391 59.13597869873047 176.2824554443359 59.30915832519531 176.4740905761719 59.45065307617188 C 176.9596710205078 59.75875854492188 177.2873840332031 60.26116180419922 177.3734893798828 60.82965087890625 L 177.3757629394531 60.84463500976562 L 177.3734893798828 60.85960388183594 C 177.2874145507812 61.42800521850586 176.9596557617188 61.93043518066406 176.47412109375 62.23860931396484 C 176.2825469970703 62.38002777099609 176.1206970214844 62.55320739746094 175.9927215576172 62.75368881225586 C 175.9762725830078 63.00442504882812 176.0039215087891 63.25355911254883 176.0749969482422 63.49465179443359 C 176.2818450927734 64.01483917236328 176.2549743652344 64.59904479980469 176.0011138916016 65.09831237792969 L 175.9942169189453 65.11186218261719 L 175.9836120605469 65.12275695800781 C 175.6495513916016 65.46566772460938 175.19287109375 65.67279052734375 174.7166137695312 65.70062255859375 L 176.8656311035156 68.50627136230469 C 176.9920043945312 68.68006896972656 177.0031890869141 68.909423828125 176.8956451416016 69.09255981445312 C 176.7893218994141 69.27336120605469 176.5803527832031 69.37718200683594 176.371337890625 69.35212707519531 L 176.3724060058594 69.33443450927734 L 176.3700408935547 69.3519287109375 L 174.4978942871094 69.09954071044922 L 174.2454528808594 70.98019409179688 C 174.2136383056641 71.19218444824219 174.0600738525391 71.36231231689453 173.8540191650391 71.4151611328125 C 173.8124389648438 71.4266357421875 173.7673187255859 71.43359375 173.7216186523438 71.43540191650391 C 173.5525207519531 71.43438720703125 173.3948974609375 71.35552978515625 173.2953491210938 71.22454833984375 L 170.1179504394531 67.06095886230469 L 166.9404296875 71.22471618652344 C 166.8409576416016 71.35552978515625 166.6833343505859 71.43438720703125 166.5188751220703 71.43548583984375 C 166.4685516357422 71.43359375 166.4234313964844 71.4266357421875 166.3801422119141 71.41470336914062 C 166.1758117675781 71.36231231689453 166.0222320556641 71.19218444824219 165.9906463623047 70.98174285888672 L 165.9734039306641 70.86688995361328 L 165.9753723144531 70.86688995361328 L 165.7381286621094 69.09954071044922 L 163.865966796875 69.3519287109375 C 163.8433380126953 69.35466003417969 163.8218231201172 69.35595703125 163.8005676269531 69.35595703125 C 163.6121520996094 69.35595703125 163.4357757568359 69.25504302978516 163.3402709960938 69.09261322021484 C 163.2326812744141 68.909423828125 163.2438659667969 68.68008422851562 163.3687438964844 68.50828552246094 L 165.5192108154297 65.70060729980469 C 165.0429229736328 65.67276000976562 164.5862121582031 65.46565246582031 164.252197265625 65.12275695800781 L 164.2415771484375 65.11186218261719 L 164.2346954345703 65.09829711914062 C 163.9808502197266 64.59906768798828 163.9539947509766 64.01483154296875 164.1607818603516 63.49468231201172 C 164.2318725585938 63.25353240966797 164.2595367431641 63.00442123413086 164.2430725097656 62.75370407104492 C 164.1151733398438 62.55329895019531 163.9533386230469 62.38011169433594 163.7617034912109 62.23862457275391 C 163.2761383056641 61.93051528930664 162.9484100341797 61.4281005859375 162.8623199462891 60.85961151123047 L 162.8600463867188 60.84463500976562 L 162.8623199462891 60.82965850830078 C 162.9483947753906 60.26120758056641 163.2761993408203 59.75874328613281 163.7617797851562 59.45060729980469 C 163.9533386230469 59.30915069580078 164.1151733398438 59.13597869873047 164.2430725097656 58.93556213378906 C 164.2595367431641 58.68490600585938 164.2318878173828 58.43583679199219 164.1608123779297 58.19471740722656 C 163.9539642333984 57.67451477050781 163.9808197021484 57.09026336669922 164.2346954345703 56.59096527099609 L 164.2419128417969 56.57675933837891 L 164.2531890869141 56.56551361083984 C 164.6548767089844 56.16447448730469 165.1991119384766 55.95549774169922 165.7694702148438 55.98789978027344 L 165.7834625244141 55.98783874511719 C 166.0250549316406 55.98783874511719 166.2604370117188 55.94158935546875 166.4834594726562 55.85032653808594 C 166.644287109375 55.66045379638672 166.7652130126953 55.44445037841797 166.8430480957031 55.20793914794922 L 166.8507080078125 55.18910980224609 C 167.063720703125 54.69186401367188 167.3051300048828 54.12827301025391 167.8758392333984 53.94412994384766 L 167.8901824951172 53.94065093994141 C 167.9935302734375 53.92351531982422 168.0990142822266 53.91482543945312 168.2036895751953 53.91482543945312 Z M 170.1180114746094 55.72527313232422 L 170.1077575683594 55.72421264648438 C 169.6608276367188 55.67809295654297 169.2321319580078 55.51460266113281 168.8680267333984 55.25141906738281 C 168.6682281494141 55.11214447021484 168.4463348388672 55.00930023193359 168.2095031738281 54.94650268554688 L 168.2024993896484 54.94871520996094 C 168.0803375244141 54.98728179931641 167.8993377685547 55.42525482177734 167.8206176757812 55.61641693115234 C 167.6858825683594 56.03127288818359 167.4423217773438 56.40367126464844 167.1160583496094 56.693603515625 L 167.1001281738281 56.70516967773438 C 166.7204284667969 56.92728424072266 166.2870941162109 57.04469299316406 165.8469390869141 57.04469299316406 C 165.4001617431641 57.08177185058594 165.1476593017578 57.13446807861328 165.098876953125 57.20098114013672 C 165.0332183837891 57.29048156738281 165.1328887939453 57.72605895996094 165.1808013916016 57.93539428710938 L 165.1833190917969 57.94645690917969 C 165.3202514648438 58.3681640625 165.3444671630859 58.82006072998047 165.2533111572266 59.25362396240234 L 165.2465057373047 59.27436065673828 C 165.0686950683594 59.66621398925781 164.7894592285156 60.00471496582031 164.4387359619141 60.25366973876953 L 164.4323577880859 60.25939178466797 C 164.2401428222656 60.43170166015625 163.91845703125 60.72010040283203 163.91845703125 60.84461212158203 C 163.91845703125 60.97732543945312 164.2923431396484 61.30071258544922 164.4376068115234 61.42598724365234 C 164.7869567871094 61.67974472045898 165.0665893554688 62.02138900756836 165.2463684082031 62.41422271728516 L 165.2533111572266 62.43526077270508 C 165.3444366455078 62.86872863769531 165.3202667236328 63.32048034667969 165.1834411621094 63.74207305908203 L 165.1807861328125 63.7536506652832 C 165.1328887939453 63.96298217773438 165.033203125 64.3985595703125 165.0988616943359 64.48802185058594 C 165.1476593017578 64.55454254150391 165.4001617431641 64.60725402832031 165.8493499755859 64.64469146728516 C 166.0927581787109 64.66009521484375 166.3386840820312 64.69792175292969 166.5784912109375 64.75700378417969 C 166.6358642578125 64.76358795166016 166.6912689208984 64.77976226806641 166.7434539794922 64.80515289306641 C 166.8755950927734 64.84477233886719 166.9987182617188 64.90693664550781 167.1095733642578 64.989990234375 L 167.1160278320312 64.99526977539062 C 167.4424896240234 65.28538513183594 167.6861724853516 65.65811157226562 167.8208618164062 66.07327270507812 C 167.8997650146484 66.26478576660156 168.0806121826172 66.70185852050781 168.2024688720703 66.74032592773438 L 168.2074890136719 66.74205017089844 C 168.20751953125 66.7420654296875 168.2115173339844 66.74346160888672 168.2216186523438 66.74346160888672 C 168.3572387695312 66.74346160888672 168.6941375732422 66.54134368896484 168.8751525878906 66.43276214599609 C 169.1080780029297 66.28451538085938 169.3590698242188 66.15751647949219 169.6189117431641 66.05668640136719 L 169.6363525390625 66.0499267578125 L 169.6456604003906 66.0499267578125 C 169.6487426757812 66.04875183105469 169.6522216796875 66.04753112792969 169.6560821533203 66.04638671875 C 169.6882781982422 66.03132629394531 169.7230072021484 66.02159881591797 169.7583923339844 66.01766967773438 C 169.7682647705078 66.01298522949219 169.7796325683594 66.00950622558594 169.7930908203125 66.00794982910156 C 169.8990783691406 65.98053741455078 170.0078582763672 65.96585083007812 170.1165466308594 65.96429443359375 L 170.1179046630859 66.05839538574219 L 170.1178283691406 65.96427917480469 C 170.2284088134766 65.96585083007812 170.3375701904297 65.98062896728516 170.4439697265625 66.00821685791016 C 170.4554901123047 66.0096435546875 170.4654541015625 66.01245880126953 170.4742584228516 66.0162353515625 L 170.481201171875 66.01808166503906 C 170.5151824951172 66.02224731445312 170.5484924316406 66.03175354003906 170.5795135498047 66.04618835449219 C 170.583740234375 66.04741668701172 170.5874328613281 66.04873657226562 170.5905151367188 66.0499267578125 L 170.5996551513672 66.0499267578125 L 170.6171112060547 66.05668640136719 C 170.8750152587891 66.15676879882812 171.1241302490234 66.28257751464844 171.3576507568359 66.43067169189453 L 171.3608703613281 66.43260192871094 C 171.4881134033203 66.50895690917969 171.8753509521484 66.74128723144531 172.0207214355469 66.74128723144531 C 172.0298156738281 66.74128723144531 172.0336456298828 66.74012756347656 172.0337982177734 66.74006652832031 C 172.1556396484375 66.70159912109375 172.3366546630859 66.26367950439453 172.4153900146484 66.07250213623047 C 172.5501556396484 65.65762329101562 172.7937164306641 65.28517150878906 173.1199493408203 64.99526214599609 L 173.1273956298828 64.9892578125 C 173.2587738037109 64.89329528808594 173.4054718017578 64.82449340820312 173.5634613037109 64.78474426269531 C 173.5711669921875 64.78120422363281 173.5818939208984 64.7769775390625 173.5950164794922 64.77464294433594 C 173.8515625 64.70470428466797 174.1162719726562 64.66107177734375 174.3820648193359 64.64492797851562 L 174.3866577148438 64.64453125 C 174.8358612060547 64.60708618164062 175.0883636474609 64.55438995361328 175.1371307373047 64.48789215087891 C 175.2027893066406 64.39840698242188 175.1031494140625 63.96287155151367 175.0552520751953 63.75357055664062 L 175.0526885986328 63.74236297607422 C 174.9157409667969 63.32061386108398 174.8915405273438 62.86871719360352 174.9827117919922 62.43525314331055 L 174.9896392822266 62.41422271728516 C 175.169189453125 62.0218505859375 175.4483947753906 61.68052291870117 175.7973022460938 61.42679977416992 C 175.9417266845703 61.30233764648438 176.3175506591797 60.97782897949219 176.3175506591797 60.84445190429688 C 176.3175506591797 60.71993255615234 175.9959106445312 60.43157958984375 175.8037261962891 60.25929260253906 L 175.7979888916016 60.25416564941406 C 175.4469146728516 60.00513458251953 175.1674194335938 59.66642761230469 174.989501953125 59.27435302734375 L 174.9827117919922 59.25360870361328 C 174.8915405273438 58.82012176513672 174.9157409667969 58.36823272705078 175.0526885986328 57.94650268554688 L 175.0552520751953 57.93533325195312 C 175.1031494140625 57.72601318359375 175.2028045654297 57.29045104980469 175.1371612548828 57.20098876953125 C 175.0885162353516 57.13470458984375 174.8374633789062 57.08212280273438 174.3909301757812 57.04468536376953 L 174.3890686035156 57.04469299316406 C 173.9489288330078 57.04469299316406 173.5155792236328 56.92728424072266 173.1358947753906 56.70516967773438 L 173.1199493408203 56.693603515625 C 172.7934875488281 56.40348052978516 172.5498046875 56.03076171875 172.4151000976562 55.61556243896484 C 172.3361968994141 55.42401123046875 172.1554107666016 54.98703765869141 172.0335083007812 54.94855499267578 C 172.0335235595703 54.94855499267578 172.0335235595703 54.94855499267578 172.0335235595703 54.94855499267578 C 172.0335083007812 54.94855499267578 172.0297088623047 54.94747161865234 172.0208892822266 54.94747161865234 C 171.8766479492188 54.94747924804688 171.4953460693359 55.17543792724609 171.3645172119141 55.25392913818359 C 171.0011596679688 55.51563262939453 170.5737915039062 55.67823028564453 170.1282806396484 55.72421264648438 L 170.1180114746094 55.72527313232422 Z M 175.2479858398438 68.13484191894531 L 173.6215362548828 66.00623321533203 C 173.5291900634766 66.15732574462891 173.4521484375 66.31748962402344 173.391845703125 66.48396301269531 L 173.3850708007812 66.50016784667969 C 173.1720733642578 66.99734497070312 172.9306488037109 67.56086730957031 172.3600006103516 67.74497222900391 C 172.2547607421875 67.78094482421875 172.143310546875 67.80004119873047 172.0303497314453 67.80120849609375 L 172.0233459472656 67.80123901367188 C 172.0193328857422 67.80123901367188 172.0153350830078 67.80122375488281 172.0113220214844 67.80117797851562 L 173.3670806884766 69.57351684570312 L 173.5157012939453 68.43400573730469 C 173.5579071044922 68.16694641113281 173.7823181152344 67.97506713867188 174.0496673583984 67.97506713867188 C 174.0715179443359 67.97506713867188 174.0936889648438 67.97642517089844 174.1155700683594 67.97908020019531 L 174.3107299804688 68.00285339355469 L 174.3080749511719 68.00569152832031 L 175.2479858398438 68.13484191894531 Z M 168.2250671386719 67.79902648925781 C 168.1065979003906 67.79902648925781 167.9892730712891 67.78089904785156 167.8763732910156 67.74517059326172 C 167.3052673339844 67.56092071533203 167.0638427734375 66.99746704101562 166.850830078125 66.50033569335938 L 166.8440093994141 66.48400115966797 C 166.7836761474609 66.31748962402344 166.7066345214844 66.15731811523438 166.6143035888672 66.00625610351562 L 164.9878845214844 68.13482666015625 L 166.1188049316406 67.97927856445312 C 166.1422424316406 67.97642517089844 166.1644134521484 67.97506713867188 166.1862487792969 67.97506713867188 C 166.45361328125 67.97506713867188 166.6780090332031 68.16694641113281 166.7198181152344 68.43132019042969 L 166.7277679443359 68.48162841796875 L 166.7264251708984 68.48298645019531 L 166.8686676025391 69.57368469238281 L 168.2261962890625 67.79902648925781 C 168.225830078125 67.79902648925781 168.2254486083984 67.79902648925781 168.2250671386719 67.79902648925781 Z M 170.1179351806641 56.03063201904297 C 171.4037933349609 56.03063201904297 172.6127166748047 56.53134155273438 173.5220184326172 57.44054412841797 C 174.4312133789062 58.34983062744141 174.9319305419922 59.55876159667969 174.9319305419922 60.84463500976562 C 174.9305572509766 62.12994003295898 174.4293212890625 63.33831024169922 173.5205383300781 64.24723052978516 C 172.6116027832031 65.15601348876953 171.4032440185547 65.65725708007812 170.1180419921875 65.65863037109375 C 168.8320922851562 65.65863037109375 167.6231536865234 65.15792083740234 166.7138519287109 64.24874114990234 C 165.8046569824219 63.33943176269531 165.3039398193359 62.13050079345703 165.3039398193359 60.84463500976562 C 165.3039398193359 59.55876159667969 165.8046569824219 58.34983062744141 166.7138519287109 57.44054412841797 C 167.6231536865234 56.53134155273438 168.8320770263672 56.03063201904297 170.1179351806641 56.03063201904297 Z M 170.1178894042969 64.60160064697266 C 171.1210021972656 64.60035705566406 172.0640106201172 64.20909881591797 172.7731018066406 63.49988174438477 C 173.4823913574219 62.7907600402832 173.8736572265625 61.84774017333984 173.8748321533203 60.84451293945312 C 173.8748321533203 59.84120941162109 173.4840545654297 58.89775085449219 172.7744598388672 58.18804168701172 C 172.0647583007812 57.47846984863281 171.1212921142578 57.08769226074219 170.1178894042969 57.08769226074219 C 169.1144866943359 57.08769226074219 168.1710205078125 57.47846984863281 167.4612884521484 58.18806457519531 C 166.7517395019531 58.89775848388672 166.3609771728516 59.84122467041016 166.3609771728516 60.84463500976562 C 166.3609771728516 61.84803009033203 166.7517395019531 62.79150009155273 167.4613189697266 63.5012321472168 C 168.1710205078125 64.21079254150391 169.1144866943359 64.60157012939453 170.1178894042969 64.60157012939453 L 170.1178894042969 64.60160064697266 Z M 170.1163330078125 58.22514343261719 C 170.3103790283203 58.22514343261719 170.4912872314453 58.32949066162109 170.5884857177734 58.49745941162109 L 170.5915832519531 58.50323486328125 L 171.1613159179688 59.65586853027344 L 172.5017395019531 59.84657287597656 L 172.5039672851562 59.85562133789062 C 172.6731719970703 59.90296173095703 172.8075561523438 60.03055572509766 172.8629302978516 60.20114135742188 C 172.9033813476562 60.32567596435547 172.8962860107422 60.45636749267578 172.8470764160156 60.57141876220703 L 172.9049835205078 60.57141876220703 L 171.8076477050781 61.64141845703125 L 172.0250549316406 62.91046142578125 C 172.0585174560547 63.11041259765625 171.9775085449219 63.30802154541016 171.8136901855469 63.42657089233398 C 171.7228393554688 63.492431640625 171.615478515625 63.52727127075195 171.5032806396484 63.52727127075195 C 171.4181060791016 63.52727127075195 171.3331756591797 63.50632095336914 171.2576599121094 63.46670150756836 L 170.1179656982422 62.86799621582031 L 168.9783172607422 63.46668243408203 C 168.9028015136719 63.50619125366211 168.8180084228516 63.52704238891602 168.7329864501953 63.52704238891602 C 168.6207275390625 63.52704238891602 168.5134124755859 63.49223327636719 168.422607421875 63.42637252807617 C 168.2589416503906 63.30758285522461 168.1781311035156 63.11000061035156 168.2117309570312 62.91074371337891 L 168.4291839599609 61.64141845703125 L 167.5077209472656 60.74301910400391 C 167.3625793457031 60.60163116455078 167.3112945556641 60.39398956298828 167.3739013671875 60.20114135742188 C 167.4364776611328 60.00830841064453 167.6000213623047 59.87042999267578 167.8006439208984 59.84130096435547 L 169.0744018554688 59.65605926513672 L 169.6440124511719 58.49745178222656 C 169.7412109375 58.32948303222656 169.9222106933594 58.22514343261719 170.1163330078125 58.22514343261719 Z M 170.3643188476562 60.42422485351562 L 170.360107421875 60.42422485351562 L 170.1136169433594 59.92533111572266 L 169.8948059082031 60.36849212646484 C 169.8182525634766 60.5242919921875 169.6696929931641 60.63262939453125 169.4974822998047 60.65811157226562 L 169.0121307373047 60.72909545898438 L 169.3665008544922 61.07369232177734 C 169.4627990722656 61.16783142089844 169.5184173583984 61.29363250732422 169.5250396728516 61.42502212524414 L 169.5379486083984 61.42502212524414 L 169.4347534179688 62.02813339233398 L 169.8726654052734 61.79820251464844 C 170.0159606933594 61.72322845458984 170.1934509277344 61.71905136108398 170.3399505615234 61.7867431640625 L 170.3414154052734 61.7867431640625 L 170.8013153076172 62.02813339233398 L 170.718017578125 61.54191207885742 C 170.7003479003906 61.44044876098633 170.7129974365234 61.33765029907227 170.7521362304688 61.24538421630859 L 170.6957702636719 61.24538421630859 L 171.2173156738281 60.72940826416016 L 170.7300415039062 60.65814208984375 C 170.5791168212891 60.63584136962891 170.4464416503906 60.54999542236328 170.3643188476562 60.42422485351562 Z" stroke="none" fill="#13395c"/>
  </g>
</svg>
