<svg xmlns="http://www.w3.org/2000/svg" width="18.354" height="18.318" viewBox="0 0 18.354 18.318">
  <path id="noun-contract-3364249" d="M88.367,17.465a.9.9,0,0,0-.9.9V34.488a.9.9,0,0,0,.9.895H99.716a.9.9,0,0,0,.895-.895V33a.3.3,0,1,0-.6,0v1.493a.29.29,0,0,1-.3.3H88.367a.292.292,0,0,1-.3-.3V18.363a.294.294,0,0,1,.3-.3h9.256v1.494a.9.9,0,0,0,.9.9h1.493v5.971a.3.3,0,1,0,.6,0V20.155a.3.3,0,0,0-.088-.212l-2.387-2.39a.3.3,0,0,0-.212-.088Zm9.854,1.02,1.37,1.371H98.52a.292.292,0,0,1-.3-.3Zm-7.764,1.369a.287.287,0,0,0-.3.3V20.8a1.192,1.192,0,0,0,.3,2.347.6.6,0,1,1-.6.6.3.3,0,1,0-.6,0,1.2,1.2,0,0,0,.9,1.152v.638a.3.3,0,1,0,.6,0v-.638a1.192,1.192,0,0,0-.3-2.347.6.6,0,1,1,.595-.6.3.3,0,1,0,.6,0,1.2,1.2,0,0,0-.895-1.153v-.643a.287.287,0,0,0-.3-.3Zm1.792,0a.3.3,0,1,0,0,.6h3.882a.3.3,0,1,0,0-.6Zm.9,2.389h2.987a.3.3,0,1,0,0-.6h-3a.3.3,0,0,0,.014.6Zm4.182,0H98.52a.3.3,0,1,0,0-.6H97.31a.3.3,0,0,0,.015.6Zm-4.182,1.792H98.52a.3.3,0,1,0,0-.6H93.13a.3.3,0,0,0,.014.6Zm11.349.562a.93.93,0,0,0-.659.271l-.584.584a.727.727,0,0,0-.761.163l-5.374,5.375a.3.3,0,0,0-.075.13l-.6,2.09a.3.3,0,0,0,.368.368l2.09-.6a.3.3,0,0,0,.13-.075l5.164-5.164.052.051a.59.59,0,0,1,0,.845L102.789,30.1a.3.3,0,1,0,.421.421l1.458-1.457a1.2,1.2,0,0,0,0-1.689l-.1-.1a.734.734,0,0,0,0-.5l.584-.584a.93.93,0,0,0-.659-1.589Zm0,.593a.333.333,0,0,1,.236.1.325.325,0,0,1,0,.471l-.535.537-.473-.473.537-.535a.333.333,0,0,1,.236-.1Zm-12.244.635h1.2a.3.3,0,1,0,.033-.6H92.233a.3.3,0,0,0,.015.6Zm2.39,0H98.52a.3.3,0,1,0,.033-.6H94.623a.3.3,0,0,0,.015.6Zm8.448.212.9.9a.117.117,0,0,1,0,.174l-3.075,3.074-1.071-1.071,3.074-3.075a.128.128,0,0,1,.174,0Zm-13.525.983a.3.3,0,1,0,0,.6H98.52a.3.3,0,1,0,0-.6Zm0,1.792a.3.3,0,1,0,0,.6h4.778a.3.3,0,1,0,0-.6Zm5.972,0a.3.3,0,1,0,0,.6h1.195a.3.3,0,1,0,0-.6Zm3.882.721,1.071,1.071L98.82,32.274,97.747,31.2Zm-1.943,2.238.776.776-1.086.31Zm-3.683.6a2.38,2.38,0,0,0-1.1.368c-.681.409-1.057.32-1.307.181a.952.952,0,0,1-.362-.358.3.3,0,1,0-.535.267,1.589,1.589,0,0,0,.608.613,1.877,1.877,0,0,0,1.9-.192c.681-.409,1.055-.322,1.305-.183a.962.962,0,0,1,.363.359.3.3,0,1,0,.534-.267,1.571,1.571,0,0,0-.606-.613,1.5,1.5,0,0,0-.807-.176Z" transform="translate(-87.269 -17.265)" fill="#13395c" stroke="#13395c" stroke-width="0.4"/>
</svg>
