<svg xmlns="http://www.w3.org/2000/svg" width="14.032" height="18.438" viewBox="0 0 14.032 18.438">
  <g id="noun-privacy-policy-2800747" transform="translate(-177.368 -51.928)">
    <path id="Path_45" data-name="Path 45" d="M187.845,52.078H178.23a.717.717,0,0,0-.712.712V69.5a.717.717,0,0,0,.712.712h12.307a.717.717,0,0,0,.712-.712V55.528Zm-.133,1.135,2.582,2.626h-2.582ZM190.337,69.3H178.408V52.968h8.413V56.73h3.516Z" transform="translate(0 0)" fill="#13395c" stroke="#13395c" stroke-width="0.3"/>
    <path id="Path_46" data-name="Path 46" d="M243.04,232.842a.446.446,0,0,0,.445.445H251.1a.445.445,0,0,0,0-.89h-7.611A.446.446,0,0,0,243.04,232.842Z" transform="translate(-62.918 -173.153)" fill="#13395c" stroke="#13395c" stroke-width="0.3"/>
    <path id="Path_47" data-name="Path 47" d="M251.1,286.72h-7.611a.445.445,0,1,0,0,.89H251.1a.445.445,0,0,0,0-.89Z" transform="translate(-62.919 -225.317)" fill="#13395c" stroke="#13395c" stroke-width="0.3"/>
    <path id="Path_48" data-name="Path 48" d="M251.1,340.48h-7.611a.445.445,0,1,0,0,.89H251.1a.445.445,0,0,0,0-.89Z" transform="translate(-62.919 -276.94)" fill="#13395c" stroke="#13395c" stroke-width="0.3"/>
    <path id="Path_49" data-name="Path 49" d="M248.649,394.8h-5.163a.445.445,0,0,0,0,.89h5.163a.445.445,0,0,0,0-.89Z" transform="translate(-62.919 -329.101)" fill="#13395c" stroke="#13395c" stroke-width="0.3"/>
    <path id="Path_50" data-name="Path 50" d="M249,99.855h2.292a.423.423,0,0,0,.423-.423V97.808a.4.4,0,0,0-.378-.4V96.94a1.18,1.18,0,1,0-2.359,0v.467a.428.428,0,0,0-.378.4v1.625A.38.38,0,0,0,249,99.855Zm1.469-.957a.334.334,0,1,1-.668,0v-.512a.334.334,0,1,1,.668,0Zm-.779-1.936a1,1,0,0,1,.022-.267c0-.022,0-.022.022-.022,0-.022,0-.022.022-.022a.082.082,0,0,0,.022-.067v-.022a.431.431,0,0,1,.378-.223.518.518,0,0,1,.378.223v.022a.082.082,0,0,1,.022.067c0,.022,0,.022.022.022,0,.022,0,.022.022.022a1.075,1.075,0,0,0,0,.267v.445h-.89v-.445Z" transform="translate(-68.252 -41.946)" fill="#13395c"/>
  </g>
</svg>
