<svg xmlns="http://www.w3.org/2000/svg" width="15.767" height="19.713" viewBox="0 0 15.767 19.713">
  <g id="noun-terms-and-conditions-3842643" transform="translate(-137.759 -14)">
    <path id="Path_51" data-name="Path 51" d="M224.047,353.36h-2.825a.581.581,0,0,0-.582.582.594.594,0,0,0,.582.582h2.825a.582.582,0,1,0,0-1.163Z" transform="translate(-79.806 -326.772)" fill="#13395c"/>
    <path id="Path_52" data-name="Path 52" d="M221.222,276.123H227.1a.582.582,0,1,0,0-1.163h-5.879a.581.581,0,0,0-.582.582.6.6,0,0,0,.582.582Z" transform="translate(-79.806 -251.28)" fill="#13395c"/>
    <path id="Path_53" data-name="Path 53" d="M221.222,196.6H227.1a.582.582,0,1,0,0-1.163h-5.879a.581.581,0,0,0-.582.582.6.6,0,0,0,.582.582Z" transform="translate(-79.806 -174.71)" fill="#13395c"/>
    <path id="Path_54" data-name="Path 54" d="M221.222,117.083h2.41a.582.582,0,1,0,0-1.163h-2.41a.581.581,0,0,0-.582.582A.6.6,0,0,0,221.222,117.083Z" transform="translate(-79.806 -98.14)" fill="#13395c"/>
    <path id="Path_55" data-name="Path 55" d="M150.992,25.861V17.739a.617.617,0,0,0-.166-.415l-3.158-3.158a.618.618,0,0,0-.415-.166h-8.912a.581.581,0,0,0-.582.582V30.41a.581.581,0,0,0,.582.582h7.25a4.083,4.083,0,1,0,5.4-5.131Zm-3.76-10.449,2.347,2.347h-2.347Zm-8.309,14.416V15.184h7.125v3.178a.581.581,0,0,0,.582.582h3.158V25.57a2.262,2.262,0,0,0-.374-.021,4.1,4.1,0,0,0-4.092,4.092v.187Zm10.511,2.721a2.908,2.908,0,1,1,2.908-2.908A2.917,2.917,0,0,1,149.434,32.55Z" transform="translate(0 0)" fill="#13395c"/>
    <path id="Path_56" data-name="Path 56" d="M404.068,400.431,402.8,401.7l-.415-.415a.587.587,0,0,0-.831.831l.852.852a.563.563,0,0,0,.415.166.617.617,0,0,0,.415-.166l1.7-1.7a.589.589,0,0,0,0-.831.64.64,0,0,0-.873,0Z" transform="translate(-253.845 -371.932)" fill="#13395c"/>
  </g>
</svg>
