<svg xmlns="http://www.w3.org/2000/svg" width="64" height="64" viewBox="0 0 64 64">
  <g id="Group_58" data-name="Group 58" transform="translate(-289 -770)">
    <circle id="Ellipse_5" data-name="Ellipse 5" cx="32" cy="32" r="32" transform="translate(289 770)" fill="#fff"/>
    <g id="vuesax_bold_messages-2" data-name="vuesax/bold/messages-2" transform="translate(-128 529)">
      <g id="messages-2" transform="translate(428 252)">
        <path id="Vector" d="M0,0H42V42H0Z" fill="none" opacity="0"/>
        <path id="Vector-2" data-name="Vector" d="M24.332,25.952l.683,5.53A1.742,1.742,0,0,1,22.389,33.2l-6.055-3.6a.874.874,0,0,1-.3-1.19,11.053,11.053,0,0,0,1.348-5.25c0-6.405-5.5-11.62-12.25-11.62a12.613,12.613,0,0,0-3.99.63.884.884,0,0,1-1.12-1.05C1.617,4.743,7.742,0,15.057,0,23.6,0,30.509,6.457,30.509,14.42A14.1,14.1,0,0,1,24.332,25.952Z" transform="translate(7.991 3.5)" fill="#13395c"/>
        <path id="Vector-3" data-name="Vector" d="M19.25,8.995a8.507,8.507,0,0,1-2.065,5.53,9.772,9.772,0,0,1-7.56,3.448L5.057,20.685a1.1,1.1,0,0,1-1.645-1.068L3.85,16.17A8.729,8.729,0,0,1,0,8.995a8.791,8.791,0,0,1,4.165-7.4A9.946,9.946,0,0,1,9.625,0C14.945,0,19.25,4.025,19.25,8.995Z" transform="translate(3.5 17.657)" fill="#13395c"/>
      </g>
    </g>
  </g>
</svg>
