<svg id="google-svgrepo-com_1_" data-name="google-svgrepo-com (1)" xmlns="http://www.w3.org/2000/svg" width="30.293" height="30.998" viewBox="0 0 30.293 30.998">
  <path id="Path_4" data-name="Path 4" d="M6.44,12.612a9.141,9.141,0,0,1,8.7-6.271,8.96,8.96,0,0,1,5.706,2.043l4.509-4.509A15.486,15.486,0,0,0,1.24,8.589Z" transform="translate(0.362 0)" fill="#ea4335"/>
  <path id="Path_5" data-name="Path 5" d="M20.357,19.1A9.552,9.552,0,0,1,15.138,20.5a9.141,9.141,0,0,1-8.683-6.229L1.237,18.229a15.453,15.453,0,0,0,13.9,8.608,14.762,14.762,0,0,0,10.118-3.875Z" transform="translate(0.361 4.16)" fill="#34a853"/>
  <path id="Path_6" data-name="Path 6" d="M22.118,24.26a15.439,15.439,0,0,0,4.676-11.624,12.853,12.853,0,0,0-.352-2.818H12v5.988h8.313a6.985,6.985,0,0,1-3.094,4.6Z" transform="translate(3.499 2.863)" fill="#4a90e2"/>
  <path id="Path_7" data-name="Path 7" d="M6.816,16.489A9.267,9.267,0,0,1,6.8,10.673L1.6,6.65a15.68,15.68,0,0,0,0,13.8Z" transform="translate(0 1.939)" fill="#fbbc05"/>
</svg>
