<svg id="linkedin-svgrepo-com" xmlns="http://www.w3.org/2000/svg" width="33.478" height="33.478" viewBox="0 0 33.478 33.478">
  <path id="Path_59" data-name="Path 59" d="M16.739,0A16.739,16.739,0,1,1,0,16.739,16.739,16.739,0,0,1,16.739,0Z" fill="#0e76a8"/>
  <path id="Path_60" data-name="Path 60" d="M81.95,87.46h3.134V77.013H81.95ZM94.161,76.651a4.7,4.7,0,0,0-3.848,1.782V76.978H87.167V87.46h3.146V81.792a2.488,2.488,0,0,1,2.472-2.367c1.375,0,1.714,1.169,1.714,2.337v5.7h3.134v-5.93C97.633,77.41,95.683,76.651,94.161,76.651ZM83.5,75.969A1.569,1.569,0,1,0,81.933,74.4,1.57,1.57,0,0,0,83.5,75.969Z" transform="translate(-72.517 -64.461)" fill="#fff"/>
</svg>
