<svg xmlns="http://www.w3.org/2000/svg" width="26.29" height="19.33" viewBox="0 0 26.29 19.33">
  <g id="noun-list-2946310" transform="translate(-93.299 -91.254)">
    <path id="Path_1" data-name="Path 1" d="M94.683,94.015H118.2a1.381,1.381,0,1,0,0-2.761H94.683a1.381,1.381,0,1,0,0,2.761Z" fill="#13395c"/>
    <path id="Path_2" data-name="Path 2" d="M118.268,253.04H94.746a1.381,1.381,0,0,0,0,2.762h23.522a1.381,1.381,0,0,0,0-2.762Z" transform="translate(-0.063 -153.502)" fill="#13395c"/>
    <path id="Path_3" data-name="Path 3" d="M113.607,414.82H94.683a1.381,1.381,0,1,0,0,2.761h18.924a1.381,1.381,0,0,0,0-2.761Z" transform="translate(0 -306.997)" fill="#13395c"/>
  </g>
</svg>
