<svg xmlns="http://www.w3.org/2000/svg" width="71.021" height="10.469" viewBox="0 0 71.021 10.469">
  <g id="Group_5" data-name="Group 5" transform="translate(-149.587 -466)">
    <g id="Star" transform="translate(149.587 466)">
      <path id="Star-2" data-name="Star" d="M8.771,6.512a.606.606,0,0,0-.176.534l.49,2.711a.6.6,0,0,1-.248.6.607.607,0,0,1-.645.044L5.752,9.124a.623.623,0,0,0-.275-.072H5.327a.447.447,0,0,0-.149.05L2.738,10.38a.644.644,0,0,1-.391.061.612.612,0,0,1-.49-.7l.49-2.711a.617.617,0,0,0-.176-.539L.181,4.562a.6.6,0,0,1-.148-.623.619.619,0,0,1,.49-.413l2.738-.4a.613.613,0,0,0,.485-.336L4.952.32a.573.573,0,0,1,.11-.149l.05-.039A.37.37,0,0,1,5.2.061l.06-.022L5.355,0h.232a.616.616,0,0,1,.485.331L7.294,2.793a.612.612,0,0,0,.457.336l2.738.4a.625.625,0,0,1,.5.413.6.6,0,0,1-.16.623Z" transform="translate(0 0)" fill="#fbbc05"/>
    </g>
    <g id="Star-3" data-name="Star" transform="translate(164.587 466)">
      <path id="Star-4" data-name="Star" d="M8.771,6.512a.606.606,0,0,0-.176.534l.49,2.711a.6.6,0,0,1-.248.6.607.607,0,0,1-.645.044L5.752,9.124a.623.623,0,0,0-.275-.072H5.327a.447.447,0,0,0-.149.05L2.738,10.38a.644.644,0,0,1-.391.061.612.612,0,0,1-.49-.7l.49-2.711a.617.617,0,0,0-.176-.539L.181,4.562a.6.6,0,0,1-.148-.623.619.619,0,0,1,.49-.413l2.738-.4a.613.613,0,0,0,.485-.336L4.952.32a.573.573,0,0,1,.11-.149l.05-.039A.37.37,0,0,1,5.2.061l.06-.022L5.355,0h.232a.616.616,0,0,1,.485.331L7.294,2.793a.612.612,0,0,0,.457.336l2.738.4a.625.625,0,0,1,.5.413.6.6,0,0,1-.16.623Z" transform="translate(0 0)" fill="#fbbc05"/>
    </g>
    <g id="Star-5" data-name="Star" transform="translate(179.587 466)">
      <path id="Star-6" data-name="Star" d="M8.771,6.512a.606.606,0,0,0-.176.534l.49,2.711a.6.6,0,0,1-.248.6.607.607,0,0,1-.645.044L5.752,9.124a.623.623,0,0,0-.275-.072H5.327a.447.447,0,0,0-.149.05L2.738,10.38a.644.644,0,0,1-.391.061.612.612,0,0,1-.49-.7l.49-2.711a.617.617,0,0,0-.176-.539L.181,4.562a.6.6,0,0,1-.148-.623.619.619,0,0,1,.49-.413l2.738-.4a.613.613,0,0,0,.485-.336L4.952.32a.573.573,0,0,1,.11-.149l.05-.039A.37.37,0,0,1,5.2.061l.06-.022L5.355,0h.232a.616.616,0,0,1,.485.331L7.294,2.793a.612.612,0,0,0,.457.336l2.738.4a.625.625,0,0,1,.5.413.6.6,0,0,1-.16.623Z" transform="translate(0 0)" fill="#fbbc05"/>
    </g>
    <g id="Star-7" data-name="Star" transform="translate(194.587 466)">
      <path id="Star-8" data-name="Star" d="M8.771,6.512a.606.606,0,0,0-.176.534l.49,2.711a.6.6,0,0,1-.248.6.607.607,0,0,1-.645.044L5.752,9.124a.623.623,0,0,0-.275-.072H5.327a.447.447,0,0,0-.149.05L2.738,10.38a.644.644,0,0,1-.391.061.612.612,0,0,1-.49-.7l.49-2.711a.617.617,0,0,0-.176-.539L.181,4.562a.6.6,0,0,1-.148-.623.619.619,0,0,1,.49-.413l2.738-.4a.613.613,0,0,0,.485-.336L4.952.32a.573.573,0,0,1,.11-.149l.05-.039A.37.37,0,0,1,5.2.061l.06-.022L5.355,0h.232a.616.616,0,0,1,.485.331L7.294,2.793a.612.612,0,0,0,.457.336l2.738.4a.625.625,0,0,1,.5.413.6.6,0,0,1-.16.623Z" transform="translate(0 0)" fill="#fbbc05"/>
    </g>
    <g id="Star-9" data-name="Star" transform="translate(209.587 466)">
      <path id="Star-10" data-name="Star" d="M8.771,6.512a.606.606,0,0,0-.176.534l.49,2.711a.6.6,0,0,1-.248.6.607.607,0,0,1-.645.044L5.752,9.124a.623.623,0,0,0-.275-.072H5.327a.447.447,0,0,0-.149.05L2.738,10.38a.644.644,0,0,1-.391.061.612.612,0,0,1-.49-.7l.49-2.711a.617.617,0,0,0-.176-.539L.181,4.562a.6.6,0,0,1-.148-.623.619.619,0,0,1,.49-.413l2.738-.4a.613.613,0,0,0,.485-.336L4.952.32a.573.573,0,0,1,.11-.149l.05-.039A.37.37,0,0,1,5.2.061l.06-.022L5.355,0h.232a.616.616,0,0,1,.485.331L7.294,2.793a.612.612,0,0,0,.457.336l2.738.4a.625.625,0,0,1,.5.413.6.6,0,0,1-.16.623Z" transform="translate(0 0)" fill="#fbbc05"/>
    </g>
  </g>
</svg>
