<svg xmlns="http://www.w3.org/2000/svg" width="33.478" height="33.478" viewBox="0 0 33.478 33.478">
  <g id="twitter-svgrepo-com" transform="translate(-0.001)">
    <circle id="Ellipse_6" data-name="Ellipse 6" cx="16.739" cy="16.739" r="16.739" transform="translate(0.001 0)" fill="#55acee"/>
    <g id="Group_45" data-name="Group 45" transform="translate(7.491 10.154)">
      <path id="Path_61" data-name="Path 61" d="M44.605,35.9a7.983,7.983,0,0,1-2.3.629,4.012,4.012,0,0,0,1.76-2.213,8.01,8.01,0,0,1-2.541.971,4,4,0,0,0-6.818,3.65A11.358,11.358,0,0,1,26.46,34.76,4.005,4.005,0,0,0,27.7,40.1a3.973,3.973,0,0,1-1.812-.5c0,.017,0,.034,0,.051a4,4,0,0,0,3.21,3.923,4.017,4.017,0,0,1-1.807.069,4.005,4.005,0,0,0,3.738,2.779A8.077,8.077,0,0,1,25.1,48.079,11.378,11.378,0,0,0,42.62,38.492c0-.173,0-.346-.012-.517a8.114,8.114,0,0,0,2-2.071Z" transform="translate(-25.103 -34.028)" fill="#f1f2f2"/>
    </g>
  </g>
</svg>
